<svg id="Layer_1" xmlns="http://www.w3.org/2000/svg" viewBox="0 0 934 105.8"><style>.st0{fill:#A78E82;}</style><path class="st0" d="M545 67.2v-1.4h.7c1.8 0 2.8-2.6 2.8-7.7v-3l.1-5.5v-3.5-3.9c0-1.2-.2-2-.7-2.5-.4-.5-1.2-.7-2.4-.7h-.2v-1.4c.9 0 1.8.1 2.5.1s1.4.1 2 .1c1.5 0 3.2-.1 5-.2s2.9-.2 3.2-.2c5.1 0 9.2 1.3 12.1 3.9s4.4 6.1 4.4 10.6c0 4.6-1.5 8.3-4.4 11.1-3 2.8-6.9 4.2-11.9 4.2-.7 0-2.1-.1-4-.2s-3.5-.2-4.7-.2h-2.1s-1.4.3-2.4.4zm7.4-2.5c1 .2 2 .4 3 .5 1 .1 1.9.2 2.9.2 3.9 0 6.9-1.1 8.9-3.2s3.1-5.2 3.1-9.1c0-4.2-1.1-7.5-3.3-9.9-2.2-2.4-5.3-3.6-9.3-3.6-.8 0-1.6 0-2.5.1-.8.1-1.7.2-2.6.3-.1 5-.1 9-.2 11.9 0 2.9-.1 5.3-.1 7.2v5.6zM619.8 37.7c2.4.1 4.6.1 6.5.2 1.9 0 3.5.1 4.9.1 1.5 0 3.1 0 4.6-.1s3.2-.1 4.8-.2c0 1 .1 2.1.1 3.2.1 1.1.2 2.2.2 3.3l-1.4.1c-.1-1.7-.6-2.8-1.5-3.4-.9-.6-2.9-.9-5.9-.9-.8 0-2.2 0-4.2.1h-.9c0 1.7-.1 3.7-.1 6.1-.1 2.4-.1 4-.1 4.7h6c2 0 3.3-.2 4-.6s1-1.1 1-2.1l1.3.1c-.1.9-.2 1.6-.2 2.4 0 .7-.1 1.4-.1 2 0 .4 0 1.1.1 2.3 0 .4 0 .8.1 1h-1.3c0-1.2-.3-2-1-2.4-.7-.4-2.3-.6-4.8-.6h-5.2v8.2s0 2.1.1 3.5c.7.1 1.5.1 2.3.2.9 0 1.8.1 2.9.1 3.5 0 5.7-.3 6.8-1 1.1-.7 2-2 2.6-3.9l1.5.5c-.4 1.1-.8 2.3-1.1 3.4-.3 1.1-.6 2.2-.8 3.3-2.2-.1-4.2-.1-6-.2-1.9 0-3.5-.1-5-.1-2.1 0-5.4.1-9.9.2h-.7v-1.3h.7c1.8 0 2.8-2.6 2.8-7.7v-3l.1-5.6v-3.5-3.7c0-1.2-.2-2-.7-2.5-.4-.5-1.2-.7-2.4-.7h-.2v-1.5zM687.6 37.7c.6.1 1.3.1 1.9.1h3.3c.6 0 1.2-.1 1.9-.1.2.5.4.9.7 1.4.3.5.7 1 1.2 1.6l17 20.2c0-2.1-.1-4.9-.1-8.3-.1-7.3-.2-11.2-.4-11.7-.2-.6-.5-1.1-.9-1.3-.4-.2-1.1-.4-2.1-.4h-.6v-1.4h.7c2 .1 3.3.1 4.1.1.8 0 2.2 0 4.3-.1h.7v1.4h-.7c-1.8 0-2.8 2.6-2.8 7.7v3l-.1 5.5c0 .8 0 1.6-.1 2.5v3.5c0 1.7 0 3 .1 3.9 0 .9.1 1.7.2 2.2h-2.3c-.2-.6-1.1-1.7-2.5-3.3l-.2-.2-17.7-20.9v.5c.1 12.9.2 19.7.4 20.5.2.6.5 1.1.9 1.3.4.2 1.1.4 2 .4h.6v1.4h-.9c-1.9-.1-3.2-.1-3.9-.1h-2.2s-1.7.1-2.6.1v-1.4h.7c1.8 0 2.8-2.6 2.8-7.7v-3l.1-5.5v-3.5-3.9c0-1.2-.2-2-.7-2.5-.5-.5-1.3-.7-2.4-.7h-.6v-1.3zM770.6 65.7h.7c1 0 1.7-.1 2.1-.4.4-.2.7-.7.9-1.3.1-.4.2-2 .3-4.6 0-2.7.1-6.8.1-12.5v-6.6h-4.2c-2 0-3.4.3-4.1.8-.7.5-1.2 1.7-1.6 3.4l-1.3-.3c.3-1.2.5-2.4.6-3.5.1-1.2.2-2.3.2-3.4.4.3 1.2.4 2.5.6s3.5.2 6.6.2h5c4.2 0 6.9-.1 8.1-.2 1.2-.1 2-.3 2.5-.6v1.4c0 .9 0 1.8.1 2.7.1.9.2 1.9.3 2.9l-1.3.2c-.2-1.6-.6-2.6-1.3-3.2-.7-.6-2.1-.9-4.3-1h-3.9V51.2c0 4.9 0 8.2.1 9.9.1 1.7.2 2.8.3 3.2.2.5.5.8.9 1 .4.2 1 .3 1.9.3h.7V67c-1.1-.1-2.2-.1-3.2-.1H774s-2.1.1-3.3.1v-1.3zM844 37.7h3.6c1.8 5.5 3.5 10.5 5.1 15s2.9 7.9 3.8 10.2c.6 1.3 1 2.1 1.4 2.4s1 .5 1.7.5h.4v1.4c-1.1-.1-2.1-.1-2.9-.1h-4.7c-.9 0-1.9.1-2.9.1v-1.4h.4c1 0 1.6-.1 2-.3.4-.2.5-.6.5-1.3 0-.2 0-.5-.1-.7-.1-.3-.1-.6-.3-1l-2-6.3h-2.1c-1.7 0-2.7-.1-3.2-.1H842c-.8 0-1.7 0-2.6.1-1 2.5-1.6 4.3-2 5.4-.4 1.1-.5 1.9-.5 2.4 0 .7.2 1.1.5 1.4.4.3 1 .4 1.9.4h.6v1.4c-1-.1-1.9-.1-2.8-.1h-4.4s-1.7.1-2.7.1v-1.4c1 0 1.8-.2 2.3-.6.6-.4 1.1-1 1.5-1.8.8-1.6 2.1-4.8 4.1-9.7s3.9-10.2 6.1-16zm.9 3.9L840.2 54h1.1c1.6 0 2.6.1 3.2.1.7 0 1.9 0 3.7-.1h.9l-4.2-12.4zM905.6 37.6c1.5.1 2.6.1 3.4.2s1.4.1 1.8.1c.9 0 1.8 0 2.6-.1.9 0 1.7-.1 2.6-.2V39h-.6c-1.1 0-1.8.4-2.2 1.1s-.6 2.5-.6 5.2v4.1l.1 15.1c.8 0 1.5.1 2.2.1h2c3.7 0 6.1-.3 7.1-1 1.1-.7 1.9-2 2.6-4l1.5.5c-.4 1.2-.8 2.3-1.1 3.5-.3 1.1-.6 2.3-.9 3.5-2.3-.1-4.4-.1-6.3-.2s-3.8.1-5.5.1c-1.2 0-2.5 0-4 .1-1.5 0-3.2.1-5.2.2V66h.7c1.9 0 2.8-2.7 2.8-8V49.6v-2.3-2c0-2.5-.2-4.2-.6-4.9-.4-.8-1.2-1.1-2.4-1.1h-.2v-1.7zM6 65.8h.7c1.8 0 2.8-2.6 2.8-7.7v-3l.1-5.6V46v-3.7c0-1.2-.2-2-.7-2.5-.4-.5-1.2-.7-2.4-.7h-.1v-1.4c.9.1 1.8.1 2.7.1h2.6c.9 0 2.1 0 3.4-.1 1.4-.1 2.3-.1 2.7-.1 2.8 0 5.1.7 6.9 2.2 1.8 1.5 2.7 3.4 2.7 5.6 0 1.7-.5 3.2-1.4 4.5-.9 1.3-2.3 2.4-4.1 3.3l3.9 5.8c.1.2.3.5.6 1 2.7 4.1 4.9 6.1 6.6 6.1h.2v1.2c-.2 0-.5 0-.9.1-.9.1-1.5.1-2 .1-1.5 0-2.6-.2-3.5-.6-.8-.4-1.7-1.2-2.5-2.3-.1-.2-.9-1.4-2.3-3.7-1.4-2.3-2.8-4.4-4.2-6.4-.5.1-1.1.1-1.7.1h-3.2v6.3c0 2.1.2 3.4.6 3.9.4.5 1.3.8 2.5.8h.6V67c-1-.1-2-.1-2.9-.1h-5s-2 .1-3.1.1v-1.2zm7.3-13.2c.7.1 1.3.1 1.9.1H18.1c.5 0 1-.1 1.6-.1 1.3-.8 2.3-1.7 2.9-2.8s.9-2.3.9-3.8c0-1.9-.6-3.5-1.9-4.6-1.2-1.2-2.9-1.7-5-1.7-.6 0-1.1 0-1.7.1-.5 0-1.1.1-1.6.2 0 1.7-.1 3.5-.1 5.3.1 1.8.1 4.3.1 7.3zM79 37.7c2.4.1 4.6.1 6.5.2 1.9 0 3.5.1 4.9.1 1.5 0 3.1 0 4.6-.1s3.2-.1 4.8-.2c0 1 .1 2.1.1 3.2.1 1.1.2 2.2.2 3.3l-1.4.1c-.1-1.7-.6-2.8-1.5-3.4-.9-.6-2.9-.9-5.9-.9-.8 0-2.2 0-4.2.1h-.9c0 1.7-.1 3.7-.1 6.1-.1 2.4-.1 4-.1 4.7h6c2 0 3.3-.2 4-.6s1-1.1 1-2.1l1.3.1c-.1.9-.2 1.6-.2 2.4 0 .7-.1 1.4-.1 2 0 .4 0 1.1.1 2.3 0 .4 0 .8.1 1h-1.3c0-1.2-.3-2-1-2.4-.7-.4-2.3-.6-4.8-.6h-5.2v8.2s0 2.1.1 3.5c.7.1 1.5.1 2.3.2.9 0 1.8.1 2.9.1 3.5 0 5.7-.3 6.8-1 1.1-.7 2-2 2.6-3.9l1.5.5c-.4 1.1-.8 2.3-1.1 3.4-.3 1.1-.6 2.2-.8 3.3-2.2-.1-4.2-.1-6-.2-1.9 0-3.5-.1-5-.1-2.1 0-5.4.1-9.9.2h-.7v-1.3h.7c1.8 0 2.8-2.6 2.8-7.7v-3l.1-5.6v-3.5-3.7c0-1.2-.2-2-.7-2.5-.4-.5-1.2-.7-2.4-.7H79v-1.5zM146.8 67.2v-1.4h.7c1.8 0 2.8-2.6 2.8-7.7v-3l.1-5.5v-3.5-3.9c0-1.2-.2-2-.7-2.5-.4-.5-1.2-.7-2.4-.7h-.2v-1.4c.9 0 1.8.1 2.5.1.8 0 1.4.1 2 .1 1.5 0 3.2-.1 5-.2s2.9-.2 3.2-.2c5.1 0 9.2 1.3 12.1 3.9 2.9 2.6 4.4 6.1 4.4 10.6 0 4.6-1.5 8.3-4.4 11.1s-6.9 4.2-11.9 4.2c-.7 0-2.1-.1-4-.2s-3.5-.2-4.7-.2h-2.1c-.5.3-1.4.3-2.4.4zm7.4-2.5c1 .2 2 .4 3 .5 1 .1 1.9.2 2.9.2 3.9 0 6.9-1.1 8.9-3.2s3.1-5.2 3.1-9.1c0-4.2-1.1-7.5-3.3-9.9-2.2-2.4-5.3-3.6-9.3-3.6-.8 0-1.6 0-2.5.1-.8.1-1.7.2-2.6.3-.1 5-.1 9-.2 11.9 0 2.9-.1 5.3-.1 7.2v5.6zM221.2 67.2v-1.4h.7c1.8 0 2.8-2.6 2.8-7.7v-3l.1-5.5v-3.5-3.9c0-1.2-.2-2-.7-2.5-.4-.5-1.2-.7-2.4-.7h-.2v-1.4c.9 0 1.8.1 2.5.1.8 0 1.4.1 2 .1 1.5 0 3.2-.1 5-.2s2.9-.2 3.2-.2c5.1 0 9.2 1.3 12.1 3.9 2.9 2.6 4.4 6.1 4.4 10.6 0 4.6-1.5 8.3-4.4 11.1s-6.9 4.2-11.9 4.2c-.7 0-2.1-.1-4-.2s-3.5-.2-4.7-.2h-2.1c-.5.3-1.4.3-2.4.4zm7.3-2.5c1 .2 2 .4 3 .5 1 .1 1.9.2 2.9.2 3.9 0 6.9-1.1 8.9-3.2s3.1-5.2 3.1-9.1c0-4.2-1.1-7.5-3.3-9.9-2.2-2.4-5.3-3.6-9.3-3.6-.8 0-1.6 0-2.5.1-.8.1-1.7.2-2.6.3-.1 5-.1 9-.2 11.9 0 2.9-.1 5.3-.1 7.2v5.6zM292.8 37.7c1 .1 2 .1 2.9.1h4.8c.9 0 1.7-.1 2.7-.1v1.4h-.3c-.8 0-1.3.1-1.7.2s-.6.4-.6.7c0 .3.3 1.1 1 2.2.2.3.3.6.4.7l5 8.9c2.3-3.6 4-6.4 5.1-8.4 1.1-2 1.7-3.1 1.7-3.4 0-.3-.2-.6-.5-.7s-.9-.2-1.6-.2h-.4v-1.4c.8.1 1.6.1 2.4.1h4.1c.7 0 1.5-.1 2.3-.1v1.4h-.5c-1.2 0-2.8 1.6-4.8 4.7-.6 1-1.1 1.7-1.4 2.3l-5.2 8 .1 7.4c0 1.9.2 3.1.7 3.6.4.5 1.2.7 2.5.7h.7v1.4c-1.1-.1-2.2-.1-3.3-.1h-5.4s-2.1.1-3.3.1v-1.4h.8c1.2 0 2-.3 2.4-.8.4-.6.7-1.7.7-3.4l.1-7.3-6.7-11.3c-.1-.2-.3-.4-.5-.8-1.2-2.1-2.3-3.1-3.3-3.1h-.3s-.3 0-.4.1l-.2-1.5zM477.4 36.8c1.2-1.4 2.1-2.8 2.7-4.2s1-2.8 1.2-4.1c.2-1.4.1-2.6-.1-3.9-.2-1.2-.6-2.4-1.1-3.5-.5-1.1-1.1-2.1-1.8-3.1s-1.6-1.9-2.6-2.7c-1-.8-2-1.5-3.2-2-1.2-.5-2.4-.9-3.7-1.1-1.3-.2-2.8-.2-4.2.1-1.5.2-3 .7-4.7 1.5-1.6.7-3.3 1.7-5 3l-10 7.6.5.7c1.3-.5 2.6-.9 3.8-1.1 1.5-.2 2.9-.3 4.2-.1 1.3.2 2.6.5 3.7 1.1 1.2.5 2.2 1.2 3.2 2s1.8 1.7 2.6 2.7c.7.9 1.3 1.9 1.8 3.1.5 1.1.9 2.3 1.1 3.5.2 1.2.2 2.5.1 3.9-.2 1.4-.6 2.7-1.2 4.1-.5 1.2-1.3 2.3-2.2 3.5l.5.7 9.8-7.4c1.9-1.5 3.4-2.9 4.6-4.3zM477.4 67c1.2 1.4 2.1 2.8 2.7 4.2s1 2.8 1.2 4.1c.2 1.4.1 2.6-.1 3.9-.2 1.2-.6 2.4-1.1 3.5-.5 1.1-1.1 2.1-1.8 3.1s-1.6 1.9-2.6 2.7c-1 .8-2 1.5-3.2 2-1.2.5-2.4.9-3.7 1.1-1.3.2-2.8.2-4.2-.1-1.5-.2-3-.7-4.7-1.5-1.6-.7-3.3-1.7-5-3l-10-7.6.5-.7c1.3.5 2.6.9 3.8 1.1 1.5.2 2.9.3 4.2.1 1.3-.2 2.6-.5 3.7-1.1 1.2-.5 2.2-1.2 3.2-2s1.8-1.7 2.6-2.7c.7-.9 1.3-1.9 1.8-3.1.5-1.1.9-2.3 1.1-3.5.2-1.2.2-2.5.1-3.9-.2-1.4-.6-2.7-1.2-4.1-.5-1.2-1.3-2.3-2.2-3.5l.5-.7 9.8 7.4c1.9 1.5 3.4 2.9 4.6 4.3zM468.3 51.6l17.1-12.1s5.3 4.4 5.3 12.1-5.3 13.2-5.3 13.2l-17.1-13.2zM434.5 27.4l-12.1-17.1S426.8 5 434.5 5c7.7 0 13.2 5.3 13.2 5.3l-13.2 17.1zM392.6 36.8c-1.2-1.4-2.1-2.8-2.7-4.2s-1-2.8-1.2-4.1c-.2-1.4-.1-2.6.1-3.9.2-1.2.6-2.4 1.1-3.5.5-1.1 1.1-2.1 1.8-3.1s1.6-1.9 2.6-2.7c1-.8 2-1.5 3.2-2 1.2-.5 2.4-.9 3.7-1.1 1.3-.2 2.8-.2 4.2.1 1.5.2 3 .7 4.7 1.5 1.6.7 3.3 1.7 5 3l10 7.6-.5.7c-1.3-.5-2.6-.9-3.8-1.1-1.5-.2-2.9-.3-4.2-.1-1.3.2-2.6.5-3.7 1.1-1.2.5-2.2 1.2-3.2 2s-1.8 1.7-2.6 2.7c-.7.9-1.3 1.9-1.8 3.1-.5 1.1-.9 2.3-1.1 3.5s-.2 2.5-.1 3.9c.2 1.4.6 2.7 1.2 4.1.5 1.2 1.3 2.3 2.2 3.5l-.5.7-10-7.5c-1.8-1.4-3.3-2.8-4.4-4.2zM392.6 67c-1.2 1.4-2.1 2.8-2.7 4.2s-1 2.8-1.2 4.1c-.2 1.4-.1 2.6.1 3.9.2 1.2.6 2.4 1.1 3.5.5 1.1 1.1 2.1 1.8 3.1s1.6 1.9 2.6 2.7 2 1.5 3.2 2c1.2.5 2.4.9 3.7 1.1 1.3.2 2.8.2 4.2-.1 1.5-.2 3-.7 4.7-1.5 1.6-.7 3.3-1.7 5-3l10-7.6-.5-.7c-1.3.5-2.6.9-3.8 1.1-1.5.2-2.9.3-4.2.1-1.3-.2-2.6-.5-3.7-1.1-1.2-.5-2.2-1.2-3.2-2s-1.8-1.7-2.6-2.7c-.7-.9-1.3-1.9-1.8-3.1-.5-1.1-.9-2.3-1.1-3.5s-.2-2.5-.1-3.9c.2-1.4.6-2.7 1.2-4.1.5-1.2 1.3-2.3 2.2-3.5l-.5-.7-9.8 7.4c-2 1.5-3.5 2.9-4.6 4.3zM401.5 51.6l-17.1-12.1s-5.3 4.4-5.3 12.1 5.3 13.2 5.3 13.2l17.1-13.2zM434.5 78.4l-12.1 17.1s4.4 5.3 12.1 5.3c7.7 0 13.2-5.3 13.2-5.3l-13.2-17.1zM450.4 35.7c-5.8-6.4-9.5-3.1-15.5-3.1s-10.1-3.1-15.5 3.1c-3.6 4 .7 16.3.7 16.3s-1 12.7-.7 15.7c.3 3 4.2 7.9 6.9 6 2.7-1.8 1-17.9 8.6-17.9 7.5 0 5.9 16.1 8.6 17.9 2.7 1.8 6.5-3 6.9-6 .3-3-.7-15.7-.7-15.7s4.5-12.2.7-16.3z"/></svg>